<svg width="71" height="41" viewBox="0 0 71 41" fill="none" xmlns="http://www.w3.org/2000/svg">
<path d="M20.84 25.2765C20.84 26.6765 20.48 27.5965 19.76 28.0765C19.4 28.2365 18.96 28.3165 18.48 28.3165C18.08 28.3165 17.56 28.1165 16.92 27.6365C15.32 26.0765 11.68 23.7565 5.96 20.7165C5.48 20.4765 4.8 20.1965 3.92 19.7965L3.8 26.5965C3.8 29.7165 3.92 32.6365 4.16 35.2765C4.2 35.9165 4.32 36.5165 4.52 37.1165C4.56 37.2365 4.64 37.5165 4.8 37.9965C4.92 38.3165 5 38.5965 5 38.8765C5 39.7165 4.44 40.1565 3.36 40.1565C1.4 40.1565 0.44 39.1165 0.44 37.0365V33.8765C0.44 33.3165 0.44 32.2765 0.480001 30.7565C0.480001 29.2765 0.52 28.0765 0.52 27.1165V15.1565C0.52 12.5965 0.480001 10.8365 0.400001 9.87654L0.24 8.03654C0.0800002 7.51654 0 7.11654 0 6.87654C0 6.47654 0.320001 5.95654 1.04 5.39654C1.72 4.87654 2.28 4.59654 2.76 4.59654C3.12 4.59654 3.56 4.71654 4.04 4.95654C4.52 5.19654 4.76 5.51654 4.76 5.87654C4.76 6.19654 4.64 6.75654 4.48 7.51654C4.28 8.31654 4.16 8.87654 4.16 9.19654C4.08 10.1565 4.04 11.3565 4.04 12.7965L4 15.9565L4.16 16.1165C6.48 17.3165 9.92 19.1965 14.52 21.7165L19.12 24.4365L20.2 24.8765C20.6 24.9965 20.84 25.1165 20.84 25.2765ZM20.04 10.9565C20.04 11.3565 19.84 11.7165 19.52 11.9565C19.2 12.1965 18.84 12.3165 18.44 12.3165C18.36 12.3165 18.28 12.2365 18.24 12.0365C18.16 11.8765 17.88 11.4765 17.4 10.7965C16.96 10.2365 16.44 9.75654 15.88 9.27654L14.76 8.63654C14.64 8.59654 14.6 8.47654 14.6 8.23654C14.6 7.23654 15.04 6.71654 15.96 6.71654C16.6 6.71654 17.44 7.27654 18.48 8.35654C19.52 9.47654 20.04 10.3165 20.04 10.9565ZM23.8 8.39654C23.8 8.79654 23.6 9.11654 23.28 9.35654C22.92 9.63654 22.56 9.75654 22.2 9.75654C22.08 9.75654 22 9.67654 21.96 9.51654C21.72 8.91654 21.28 8.23654 20.56 7.51654C20.04 7.03654 19.48 6.63654 18.88 6.39654C18.76 6.31654 18.72 6.15654 18.72 5.95654C18.72 5.55654 18.84 5.23654 19.12 4.91654C19.36 4.59654 19.68 4.43654 20.08 4.43654C20.64 4.43654 21.4 4.95654 22.36 5.99654C23.32 7.03654 23.8 7.83654 23.8 8.39654Z" fill="#047E4B"/>
<path d="M58.2 9.75654C58.2 12.5565 56.16 15.6365 52.12 18.9965C49.8 20.9165 48.24 21.8765 47.44 21.8765C46.4 21.6365 45.8 20.5165 45.64 18.5165L46.56 18.1965C46.76 18.1165 47.48 17.7165 48.68 16.9565C51.08 15.4365 52.76 13.8365 53.8 12.0765C54.24 11.3165 54.48 10.6765 54.48 10.1965C54.48 9.07654 53.72 8.47654 52.2 8.47654C47.76 8.47654 43.24 8.99654 38.68 9.95654C38.6 9.95654 36.36 10.5565 31.96 11.6765C30.52 11.6765 29.84 10.7965 29.84 9.03654V8.27654C38.52 6.51654 45.84 5.59654 51.84 5.59654C54.68 5.59654 56.6 6.39654 57.64 7.99654C58 8.63654 58.2 9.19654 58.2 9.75654ZM43.64 20.7565C43.64 20.9165 43.56 21.0365 43.44 21.1965C43.32 21.3565 43.2 21.5965 43.04 21.9165C42.4 23.4365 41.76 25.3165 41.12 27.5565L39.12 34.2765L38.4 37.3165C37.96 38.7165 37.4 39.4365 36.72 39.4365C36.2 39.4365 35.68 39.0765 35.12 38.3565C34.56 37.5965 34.32 36.9565 34.32 36.4765C34.32 36.2365 34.36 36.0365 34.44 35.8765C34.52 35.6765 34.64 35.3565 34.88 34.9565C35.28 33.8365 35.76 32.3965 36.32 30.5965L39.16 20.9965C39.24 20.7565 39.28 20.5165 39.36 20.2765L39.52 19.7565C39.72 19.0765 40.16 18.7165 40.8 18.7165C41.36 18.7165 41.92 18.9165 42.56 19.3165C43.28 19.7565 43.64 20.2365 43.64 20.7565Z" fill="#047E4B"/>
<path d="M64.3653 1.18769C64.8798 -0.395898 67.1202 -0.395898 67.6347 1.18769C67.8648 1.8959 68.5248 2.37539 69.2694 2.37539C70.9345 2.37539 71.6268 4.5061 70.2798 5.48481C69.6773 5.9225 69.4252 6.69834 69.6553 7.40654C70.1699 8.99013 68.3574 10.307 67.0103 9.32827C66.4079 8.89058 65.5921 8.89058 64.9897 9.32827C63.6426 10.307 61.8301 8.99013 62.3447 7.40654C62.5748 6.69834 62.3227 5.9225 61.7202 5.48481C60.3732 4.5061 61.0655 2.37539 62.7306 2.37539C63.4752 2.37539 64.1352 1.8959 64.3653 1.18769Z" fill="#047E4B"/>
</svg>
